<?xml version="1.0" encoding="UTF-8" standalone="no"?>
<svg
   xmlns:dc="http://purl.org/dc/elements/1.1/"
   xmlns:cc="http://creativecommons.org/ns#"
   xmlns:rdf="http://www.w3.org/1999/02/22-rdf-syntax-ns#"
   xmlns:svg="http://www.w3.org/2000/svg"
   xmlns="http://www.w3.org/2000/svg"
   xmlns:sodipodi="http://sodipodi.sourceforge.net/DTD/sodipodi-0.dtd"
   xmlns:inkscape="http://www.inkscape.org/namespaces/inkscape"
   version="1.1"
   x="0px"
   y="0px"
   viewBox="0 0 40.602001 93.435997"
   enable-background="new 0 0 100 100"
   xml:space="preserve"
   id="svg4227"
   inkscape:version="0.91 r13725"
   sodipodi:docname="eiffel-tower-noun-1190.svg"
   width="40.602001"
   height="93.435997"
   inkscape:export-filename="/Users/e/Downloads/path4231.png"
   inkscape:export-xdpi="1330.2153"
   inkscape:export-ydpi="1330.2153"><metadata
     id="metadata4243"><rdf:RDF><cc:Work
         rdf:about=""><dc:format>image/svg+xml</dc:format><dc:type
           rdf:resource="http://purl.org/dc/dcmitype/StillImage" /><dc:title></dc:title></cc:Work></rdf:RDF></metadata><defs
     id="defs4241" /><sodipodi:namedview
     pagecolor="#ffffff"
     bordercolor="#666666"
     borderopacity="1"
     objecttolerance="10"
     gridtolerance="10"
     guidetolerance="10"
     inkscape:pageopacity="0"
     inkscape:pageshadow="2"
     inkscape:window-width="1107"
     inkscape:window-height="806"
     id="namedview4239"
     showgrid="false"
     fit-margin-top="0"
     fit-margin-left="0"
     fit-margin-right="0"
     fit-margin-bottom="0"
     inkscape:zoom="5.192"
     inkscape:cx="19.699"
     inkscape:cy="49.68632"
     inkscape:window-x="80"
     inkscape:window-y="0"
     inkscape:window-maximized="0"
     inkscape:current-layer="g4229" /><g
     id="g4229"
     transform="translate(-30.301,-3.342)"><path
       d="m 62.626,81.757 c -0.43,-0.675 -0.307,-1.409 -0.307,-1.409 l 0,-1.043 0.184,-0.919 -0.367,0 0,-1.901 -2.023,0 -5.396,0 c -0.062,0 -8.17,0 -8.231,0 l -5.396,0 -2.023,0 0,1.901 -0.367,0 0.184,0.919 0,1.043 c 0,0 0.123,0.734 -0.306,1.409 -0.43,0.675 -8.277,15.021 -8.277,15.021 l 7.603,0 c 0,0 0.683,-12.017 12.698,-12.017 12.017,0 12.699,12.017 12.699,12.017 l 7.602,0 C 70.901,96.777 63.056,82.432 62.626,81.757 Z"
       id="path4231"
       inkscape:connector-curvature="0"
       style="fill:#0000ff;fill-opacity:1" /><path
       d="m 45.075,62.015 c 0,0 -1.588,8.808 -3.625,13.659 l 5.274,0 C 47.515,72.647 48.57,65.326 48.57,65.326 l 4.062,0 c 0,0 1.056,7.32 1.847,10.348 l 5.273,0 C 57.715,70.822 56.127,62.015 56.127,62.015 l 0.43,0 0.699,-2.313 -1.312,-0.015 0,-0.737 -0.858,0 c 0,0 -2.882,-20.416 -2.882,-42.978 0,0 0.614,0 0.614,-0.797 0,-0.797 0,-1.655 0,-1.655 l -0.246,-0.245 0,-1.41 c 0,0 0,-0.491 -0.491,-0.858 -0.489,-0.368 -1.164,-0.552 -1.164,-1.349 l -0.095,-0.306 -0.221,-6.01 -0.219,6.01 -0.096,0.306 c 0,0.797 -0.675,0.98 -1.164,1.349 -0.491,0.367 -0.491,0.858 -0.491,0.858 l 0,1.41 -0.245,0.245 c 0,0 0,0.858 0,1.655 0,0.797 0.613,0.797 0.613,0.797 0,22.562 -2.882,42.978 -2.882,42.978 l -0.857,0 0,0.736 -1.314,0.015 0.701,2.313 0.428,0 z"
       id="path4233"
       inkscape:connector-curvature="0"
       style="fill:#0000ff;fill-opacity:1" /></g></svg>